<?xml version="1.0" encoding="utf-8"?><svg xmlns="http://www.w3.org/2000/svg" xmlns:xlink="http://www.w3.org/1999/xlink"><symbol viewBox="0 0 14 8" id="arrow-down" xmlns="http://www.w3.org/2000/svg"><path d="M1 1l6 6 6-6"/></symbol><symbol viewBox="0 0 8 14" id="arrow-nav-catalog" xmlns="http://www.w3.org/2000/svg"><path d="M1 13l6-6-6-6"/></symbol><symbol viewBox="0 0 22 22" id="arrow-right" xmlns="http://www.w3.org/2000/svg"><path d="M11 15l4-4m0 0l-4-4m4 4H7m14 0c0 5.523-4.477 10-10 10S1 16.523 1 11 5.477 1 11 1s10 4.477 10 10z"/></symbol><symbol viewBox="0 0 17 17" id="fb" xmlns="http://www.w3.org/2000/svg"><path d="M17 2.819C17 1.32 15.679 0 14.181 0H2.82C1.32 0 0 1.321 0 2.819V14.18C0 15.68 1.321 17 2.819 17h5.725v-6.43H6.43V7.75h2.114V6.606c0-1.938 1.41-3.611 3.171-3.611h2.29v2.818h-2.29c-.264 0-.528.265-.528.793v1.145h2.818v2.819h-2.819V17h2.995C15.68 17 17 15.679 17 14.181V2.82z"/></symbol><symbol viewBox="0 0 17 17" id="in" xmlns="http://www.w3.org/2000/svg"><path d="M14.58 0H2.42C1.045 0 0 1.046 0 2.42v12.16C0 15.955 1.046 17 2.42 17h12.16c1.374 0 2.42-1.046 2.42-2.42V2.42C17 1.045 15.954 0 14.58 0zM8.5 13.6c2.812 0 5.1-2.223 5.1-4.904 0-.458-.065-.98-.196-1.373h1.438v6.93a.655.655 0 01-.654.655H2.813a.655.655 0 01-.654-.654V7.258h1.504a4.964 4.964 0 00-.197 1.373C3.4 11.377 5.688 13.6 8.5 13.6zm0-1.961c-1.83 0-3.27-1.439-3.27-3.204 0-1.766 1.44-3.204 3.27-3.204s3.27 1.438 3.27 3.204c0 1.83-1.44 3.204-3.27 3.204zm6.277-6.997c0 .393-.327.72-.72.72h-1.83a.726.726 0 01-.72-.72V2.877c0-.392.328-.72.72-.72h1.83c.393 0 .72.328.72.72v1.765z"/></symbol><symbol viewBox="0 0 512 512" id="left" xmlns="http://www.w3.org/2000/svg"><path d="M256 0C114.844 0 0 114.844 0 256s114.844 256 256 256 256-114.844 256-256S397.156 0 256 0zm0 490.667C126.604 490.667 21.333 385.396 21.333 256S126.604 21.333 256 21.333 490.667 126.604 490.667 256 385.396 490.667 256 490.667z"/><path d="M394.667 245.333H143.083l77.792-77.792c4.167-4.167 4.167-10.917 0-15.083-4.167-4.167-10.917-4.167-15.083 0l-96 96c-4.167 4.167-4.167 10.917 0 15.083l96 96a10.634 10.634 0 007.542 3.125c2.729 0 5.458-1.042 7.542-3.125 4.167-4.167 4.167-10.917 0-15.083l-77.792-77.792h251.583c5.896 0 10.667-4.771 10.667-10.667s-4.771-10.666-10.667-10.666z"/></symbol><symbol viewBox="-18 -18 572.009 572" id="next" xmlns="http://www.w3.org/2000/svg"><path d="M279.629 143.855c-4.852-4.855-12.723-4.855-17.582 0-4.856 4.852-4.856 12.727 0 17.583l94.164 94.164H106.02c-6.887 0-12.473 5.585-12.473 12.472 0 6.89 5.586 12.473 12.473 12.473h250.066l-94.164 94.164a12.42 12.42 0 000 17.586 12.25 12.25 0 008.855 3.617 12.778 12.778 0 008.852-3.617l115.367-115.363a12.36 12.36 0 003.621-8.86 12.856 12.856 0 00-3.62-8.851zm0 0"/><path d="M268.156-.074C159.7-.094 61.914 65.234 20.41 165.438-21.086 265.644 1.867 380.98 78.582 457.647c104.703 104.704 274.453 104.704 379.152 0 104.7-104.695 104.7-274.445 0-379.148A266.44 266.44 0 00268.156-.074zm0 511.355c-134.074 0-243.203-109.133-243.203-243.207S134.082 24.871 268.156 24.871 511.363 134 511.363 268.074 402.23 511.281 268.156 511.281zm0 0"/></symbol><symbol viewBox="0 0 14 23" id="ok" xmlns="http://www.w3.org/2000/svg"><path d="M13.238 13.793c.524-.525.6-1.274.15-2.024-.375-.6-1.05-.9-1.8-.75-.3.075-.6.225-.899.45-2.324 1.574-5.472 1.5-7.796-.075l-.45-.225c-.824-.375-1.649-.225-2.099.525-.524.75-.45 1.574.225 2.249.15.15.3.225.375.375l.075.075c1.05.824 2.324 1.349 3.973 1.574l-.975.974L1.47 19.49c-.225.225-.525.6-.525 1.124 0 .675.375 1.35 1.05 1.65.224.15.45.15.674.15.375 0 .825-.15 1.125-.525l2.923-2.924.075-.075s.075 0 .075.075c.6.675 1.274 1.274 1.874 1.95l.9.899c.374.375.674.524 1.124.524.675.075 1.424-.374 1.724-1.05.3-.599.15-1.348-.375-1.798-.75-.75-1.499-1.574-2.324-2.324l-1.274-1.274c.675-.075 1.424-.225 2.099-.525 1.124-.375 1.949-.9 2.624-1.574z"/><path d="M6.791 11.694c3.223 0 5.847-2.549 5.847-5.772a5.9 5.9 0 00-1.724-4.198C9.789.6 8.365 0 6.866 0 3.643 0 1.094 2.624 1.019 5.772c0 1.574.6 2.998 1.724 4.123 1.05 1.2 2.474 1.799 4.048 1.799zm-1.65-7.496c.45-.45 1.05-.675 1.65-.675 1.35 0 2.324 1.05 2.324 2.324 0 1.35-1.05 2.324-2.324 2.324-1.35 0-2.324-1.05-2.324-2.324 0-.6.225-1.2.675-1.65z"/><path d="M13.238 13.793c.524-.525.6-1.274.15-2.024-.375-.6-1.05-.9-1.8-.75-.3.075-.6.225-.899.45-2.324 1.574-5.472 1.5-7.796-.075l-.45-.225c-.824-.375-1.649-.225-2.099.525-.524.75-.45 1.574.225 2.249.15.15.3.225.375.375l.075.075c1.05.824 2.324 1.349 3.973 1.574l-.975.974L1.47 19.49c-.225.225-.525.6-.525 1.124 0 .675.375 1.35 1.05 1.65.224.15.45.15.674.15.375 0 .825-.15 1.125-.525l2.923-2.924.075-.075s.075 0 .075.075c.6.675 1.274 1.274 1.874 1.95l.9.899c.374.375.674.524 1.124.524.675.075 1.424-.374 1.724-1.05.3-.599.15-1.348-.375-1.798-.75-.75-1.499-1.574-2.324-2.324l-1.274-1.274c.675-.075 1.424-.225 2.099-.525 1.124-.375 1.949-.9 2.624-1.574z"/></symbol><symbol viewBox="0 0 22 22" id="shipments-arrow-btn" xmlns="http://www.w3.org/2000/svg"><path d="M11 15l4-4m0 0l-4-4m4 4H7m14 0c0 5.523-4.477 10-10 10S1 16.523 1 11 5.477 1 11 1s10 4.477 10 10z"/></symbol><symbol viewBox="0 0 42 42" id="slider-left" xmlns="http://www.w3.org/2000/svg"><path d="M21 29l-8-8m0 0l8-8m-8 8h16M1 21c0 11.046 8.954 20 20 20s20-8.954 20-20S32.046 1 21 1 1 9.954 1 21z"/></symbol><symbol viewBox="0 0 42 42" id="slider-right" xmlns="http://www.w3.org/2000/svg"><path d="M21 29l8-8m0 0l-8-8m8 8H13m28 0c0 11.046-8.954 20-20 20S1 32.046 1 21 9.954 1 21 1s20 8.954 20 20z"/></symbol><symbol viewBox="0 0 40 40" id="smartphone" xmlns="http://www.w3.org/2000/svg"><path d="M25 10H15a2 2 0 00-2 2v16a2 2 0 002 2h10a2 2 0 002-2V12a2 2 0 00-2-2z"/><circle cx="20" cy="26" r=".5"/></symbol><symbol viewBox="0 0 20 20" id="viber" xmlns="http://www.w3.org/2000/svg"><circle cx="10" cy="10" r="10"/><path d="M13.127 5.273a15.492 15.492 0 00-5.79 0c-.844.182-1.906 1.201-2.09 2.002a11.435 11.435 0 000 4.73c.22.802 1.283 1.82 2.09 2.003.036 0 .073.036.073.072v2.293c0 .11.146.182.22.073l1.1-1.128s.879-.91 1.025-1.056c0 0 .037-.036.074-.036 1.099.036 2.235-.073 3.335-.255.843-.182 1.905-1.2 2.089-2.002.33-1.564.33-3.166 0-4.73-.22-.765-1.283-1.784-2.126-1.966zm.037 6.842c-.184.364-.403.655-.77.837l-.33.11a4.679 4.679 0 01-.366-.11c-1.173-.473-2.273-1.128-3.152-2.074a8.752 8.752 0 01-1.21-1.82c-.146-.328-.293-.619-.403-.946-.11-.291.074-.583.257-.801.183-.218.403-.364.66-.473.183-.11.366-.036.513.11.293.363.586.727.806 1.127.146.255.11.546-.147.728a.651.651 0 00-.183.146c-.037.036-.11.073-.147.145a.352.352 0 00-.036.328c.293.837.843 1.492 1.686 1.856a.87.87 0 00.44.11c.256-.037.366-.328.55-.474.182-.146.402-.146.622-.036.183.109.367.254.587.4.183.146.366.255.55.4.11.073.146.255.073.437zm-1.54-2.73c-.073 0-.036 0 0 0-.146 0-.183-.072-.22-.181 0-.073 0-.182-.036-.255a.691.691 0 00-.257-.4l-.22-.11c-.11-.036-.183-.036-.293-.036-.11-.037-.146-.11-.146-.219 0-.072.11-.145.183-.145.586.036 1.026.364 1.1 1.055v.146c0 .073-.037.146-.11.146zm-.366-1.6a2.735 2.735 0 00-.586-.183c-.074 0-.184-.036-.257-.036-.11 0-.183-.073-.147-.182 0-.11.074-.182.184-.146.366.037.696.11 1.026.255.66.328 1.026.873 1.136 1.601v.474c-.037.145-.293.181-.33 0 0-.037-.037-.11-.037-.146 0-.328-.073-.655-.22-.946a1.966 1.966 0 00-.77-.692zm1.979 2.183c-.11 0-.183-.11-.183-.219 0-.218-.037-.436-.074-.655-.146-1.164-1.1-2.11-2.235-2.292-.183-.037-.367-.037-.513-.073-.11 0-.257 0-.294-.146-.036-.109.074-.218.184-.218h.073c1.503.036.073 0 0 0 1.54.036 2.822 1.055 3.079 2.584.036.255.073.51.073.8.073.11 0 .219-.11.219z"/></symbol><symbol viewBox="0 0 21 13" id="vk" xmlns="http://www.w3.org/2000/svg"><path d="M20.806 11.115c0-.083-.082-.083-.082-.166-.333-.664-1.08-1.494-2.076-2.407-.498-.415-.747-.748-.913-.914-.25-.332-.25-.58-.166-.913.083-.249.415-.664.996-1.411.332-.415.498-.664.747-.914 1.245-1.66 1.827-2.74 1.66-3.237l-.082-.083c-.084-.083-.166-.166-.333-.166-.166-.084-.415-.084-.664 0h-3.736l-.083.083c-.083.083-.083.083-.083.166-.332.913-.747 1.66-1.162 2.49-.25.415-.498.83-.747 1.163-.25.332-.416.58-.582.747-.166.166-.332.249-.415.415-.083.083-.249.166-.249.083-.083 0-.166 0-.166-.083l-.249-.25c-.083-.082-.083-.248-.166-.414V1.153c0-.083-.083-.25-.083-.333l-.249-.249c-.083-.083-.249-.083-.332-.166A7.448 7.448 0 0010.097.24c-1.329 0-2.242.083-2.574.25-.166.082-.332.165-.415.331-.166.167-.166.25-.083.25.415.083.747.249.913.498l.083.166c.083.083.083.249.166.498s.083.498.083.83V4.39c0 .416-.083.665-.083.914s-.083.415-.166.498c-.083.166-.083.249-.166.249 0 0 0 .083-.083.083s-.166.083-.332.083c-.083 0-.25-.083-.332-.166a1 1 0 01-.415-.415c-.166-.166-.332-.415-.499-.747-.166-.333-.415-.665-.58-1.163l-.167-.332c-.083-.166-.249-.498-.415-.913-.166-.415-.332-.747-.498-1.162a1.146 1.146 0 00-.249-.332h-.083S4.119.904 4.036.904 3.87.82 3.786.82H.799C.466.82.3.903.217.987l-.083.083v.166c0 .083 0 .166.083.332.415.996.913 1.992 1.411 2.989.498.913.996 1.743 1.329 2.324.415.581.747 1.162 1.162 1.66.415.499.664.83.747.997l.332.332.25.249c.165.166.414.415.746.664.333.25.748.498 1.163.747.415.25.913.416 1.411.582.581.166 1.08.249 1.578.166h1.245a.754.754 0 00.581-.25l.083-.083c0-.082.083-.082.083-.165v-.333c0-.332 0-.58.083-.83.083-.249.083-.415.166-.581.083-.166.166-.25.25-.332l.165-.166h.083c.166-.083.415 0 .581.166.25.166.499.415.665.664.166.25.415.498.747.83.332.332.581.582.747.665l.25.166c.165.083.331.166.58.249.25.083.415.083.581.083l2.823-.083c.25 0 .498-.083.665-.166.166-.083.248-.167.248-.332v-.333c-.166-.166-.166-.249-.166-.332z"/></symbol><symbol viewBox="0 0 20 20" id="watsapp" xmlns="http://www.w3.org/2000/svg"><circle cx="10" cy="10" r="10"/><path d="M13.963 6.031A5.214 5.214 0 0010.268 4.5c-2.89 0-5.231 2.333-5.231 5.214 0 .911.256 1.822.695 2.588L5 15l2.78-.73a5.34 5.34 0 002.488.62c2.89 0 5.232-2.333 5.232-5.213-.037-1.349-.549-2.661-1.537-3.646zm-1.17 5.542c-.11.292-.622.583-.878.62a2.06 2.06 0 01-.805-.037c-.183-.073-.44-.146-.732-.291-1.317-.547-2.158-1.86-2.232-1.97-.073-.072-.548-.692-.548-1.348 0-.656.329-.948.439-1.094.11-.146.256-.146.365-.146h.257c.073 0 .182-.036.292.219.11.255.366.912.403.948a.232.232 0 010 .219c-.037.073-.074.146-.147.218-.073.073-.146.183-.183.22-.073.072-.146.145-.073.254.073.146.33.547.732.912.512.437.915.583 1.06.656.147.073.22.037.294-.036.073-.073.329-.365.402-.51.073-.147.183-.11.293-.074.11.037.768.365.878.438.146.073.22.11.256.146.036.109.036.364-.073.656z"/></symbol></svg>