<?xml version="1.0" encoding="utf-8"?><svg xmlns="http://www.w3.org/2000/svg" xmlns:xlink="http://www.w3.org/1999/xlink"><symbol viewBox="0 0 14 8" id="arrow-down" xmlns="http://www.w3.org/2000/svg"><path d="M1 1l6 6 6-6"/></symbol><symbol viewBox="0 0 22 22" id="arrow-right" xmlns="http://www.w3.org/2000/svg"><path d="M11 15l4-4m0 0l-4-4m4 4H7m14 0c0 5.523-4.477 10-10 10S1 16.523 1 11 5.477 1 11 1s10 4.477 10 10z"/></symbol><symbol viewBox="0 0 512 512" id="left" xmlns="http://www.w3.org/2000/svg"><path d="M256 0C114.844 0 0 114.844 0 256s114.844 256 256 256 256-114.844 256-256S397.156 0 256 0zm0 490.667C126.604 490.667 21.333 385.396 21.333 256S126.604 21.333 256 21.333 490.667 126.604 490.667 256 385.396 490.667 256 490.667z"/><path d="M394.667 245.333H143.083l77.792-77.792c4.167-4.167 4.167-10.917 0-15.083-4.167-4.167-10.917-4.167-15.083 0l-96 96c-4.167 4.167-4.167 10.917 0 15.083l96 96a10.634 10.634 0 007.542 3.125c2.729 0 5.458-1.042 7.542-3.125 4.167-4.167 4.167-10.917 0-15.083l-77.792-77.792h251.583c5.896 0 10.667-4.771 10.667-10.667s-4.771-10.666-10.667-10.666z"/></symbol><symbol viewBox="-18 -18 572.009 572" id="next" xmlns="http://www.w3.org/2000/svg"><path d="M279.629 143.855c-4.852-4.855-12.723-4.855-17.582 0-4.856 4.852-4.856 12.727 0 17.583l94.164 94.164H106.02c-6.887 0-12.473 5.585-12.473 12.472 0 6.89 5.586 12.473 12.473 12.473h250.066l-94.164 94.164a12.42 12.42 0 000 17.586 12.25 12.25 0 008.855 3.617 12.778 12.778 0 008.852-3.617l115.367-115.363a12.36 12.36 0 003.621-8.86 12.856 12.856 0 00-3.62-8.851zm0 0"/><path d="M268.156-.074C159.7-.094 61.914 65.234 20.41 165.438-21.086 265.644 1.867 380.98 78.582 457.647c104.703 104.704 274.453 104.704 379.152 0 104.7-104.695 104.7-274.445 0-379.148A266.44 266.44 0 00268.156-.074zm0 511.355c-134.074 0-243.203-109.133-243.203-243.207S134.082 24.871 268.156 24.871 511.363 134 511.363 268.074 402.23 511.281 268.156 511.281zm0 0"/></symbol><symbol viewBox="0 0 42 42" id="slider-left" xmlns="http://www.w3.org/2000/svg"><path d="M21 29l-8-8m0 0l8-8m-8 8h16M1 21c0 11.046 8.954 20 20 20s20-8.954 20-20S32.046 1 21 1 1 9.954 1 21z"/></symbol><symbol viewBox="0 0 42 42" id="slider-right" xmlns="http://www.w3.org/2000/svg"><path d="M21 29l8-8m0 0l-8-8m8 8H13m28 0c0 11.046-8.954 20-20 20S1 32.046 1 21 9.954 1 21 1s20 8.954 20 20z"/></symbol><symbol viewBox="0 0 40 40" id="smartphone" xmlns="http://www.w3.org/2000/svg"><path d="M25 10H15a2 2 0 00-2 2v16a2 2 0 002 2h10a2 2 0 002-2V12a2 2 0 00-2-2z"/><circle cx="20" cy="26" r=".5"/></symbol><symbol viewBox="0 0 20 20" id="viber" xmlns="http://www.w3.org/2000/svg"><circle cx="10" cy="10" r="10"/><path d="M13.127 5.273a15.492 15.492 0 00-5.79 0c-.844.182-1.906 1.201-2.09 2.002a11.435 11.435 0 000 4.73c.22.802 1.283 1.82 2.09 2.003.036 0 .073.036.073.072v2.293c0 .11.146.182.22.073l1.1-1.128s.879-.91 1.025-1.056c0 0 .037-.036.074-.036 1.099.036 2.235-.073 3.335-.255.843-.182 1.905-1.2 2.089-2.002.33-1.564.33-3.166 0-4.73-.22-.765-1.283-1.784-2.126-1.966zm.037 6.842c-.184.364-.403.655-.77.837l-.33.11a4.679 4.679 0 01-.366-.11c-1.173-.473-2.273-1.128-3.152-2.074a8.752 8.752 0 01-1.21-1.82c-.146-.328-.293-.619-.403-.946-.11-.291.074-.583.257-.801.183-.218.403-.364.66-.473.183-.11.366-.036.513.11.293.363.586.727.806 1.127.146.255.11.546-.147.728a.651.651 0 00-.183.146c-.037.036-.11.073-.147.145a.352.352 0 00-.036.328c.293.837.843 1.492 1.686 1.856a.87.87 0 00.44.11c.256-.037.366-.328.55-.474.182-.146.402-.146.622-.036.183.109.367.254.587.4.183.146.366.255.55.4.11.073.146.255.073.437zm-1.54-2.73c-.073 0-.036 0 0 0-.146 0-.183-.072-.22-.181 0-.073 0-.182-.036-.255a.691.691 0 00-.257-.4l-.22-.11c-.11-.036-.183-.036-.293-.036-.11-.037-.146-.11-.146-.219 0-.072.11-.145.183-.145.586.036 1.026.364 1.1 1.055v.146c0 .073-.037.146-.11.146zm-.366-1.6a2.735 2.735 0 00-.586-.183c-.074 0-.184-.036-.257-.036-.11 0-.183-.073-.147-.182 0-.11.074-.182.184-.146.366.037.696.11 1.026.255.66.328 1.026.873 1.136 1.601v.474c-.037.145-.293.181-.33 0 0-.037-.037-.11-.037-.146 0-.328-.073-.655-.22-.946a1.966 1.966 0 00-.77-.692zm1.979 2.183c-.11 0-.183-.11-.183-.219 0-.218-.037-.436-.074-.655-.146-1.164-1.1-2.11-2.235-2.292-.183-.037-.367-.037-.513-.073-.11 0-.257 0-.294-.146-.036-.109.074-.218.184-.218h.073c1.503.036.073 0 0 0 1.54.036 2.822 1.055 3.079 2.584.036.255.073.51.073.8.073.11 0 .219-.11.219z"/></symbol><symbol viewBox="0 0 20 20" id="watsapp" xmlns="http://www.w3.org/2000/svg"><circle cx="10" cy="10" r="10"/><path d="M13.963 6.031A5.214 5.214 0 0010.268 4.5c-2.89 0-5.231 2.333-5.231 5.214 0 .911.256 1.822.695 2.588L5 15l2.78-.73a5.34 5.34 0 002.488.62c2.89 0 5.232-2.333 5.232-5.213-.037-1.349-.549-2.661-1.537-3.646zm-1.17 5.542c-.11.292-.622.583-.878.62a2.06 2.06 0 01-.805-.037c-.183-.073-.44-.146-.732-.291-1.317-.547-2.158-1.86-2.232-1.97-.073-.072-.548-.692-.548-1.348 0-.656.329-.948.439-1.094.11-.146.256-.146.365-.146h.257c.073 0 .182-.036.292.219.11.255.366.912.403.948a.232.232 0 010 .219c-.037.073-.074.146-.147.218-.073.073-.146.183-.183.22-.073.072-.146.145-.073.254.073.146.33.547.732.912.512.437.915.583 1.06.656.147.073.22.037.294-.036.073-.073.329-.365.402-.51.073-.147.183-.11.293-.074.11.037.768.365.878.438.146.073.22.11.256.146.036.109.036.364-.073.656z"/></symbol></svg>